# xmcd
#
# Track frame offsets: 
#        150
#        17276
#        33140
#        51682
#        69716
#
# Disc length: 1169 seconds
#
# Revision: 0
# Processed by: cddbd v1.5.2PL0 Copyright (c) Steve Scherf et al.
# Submitted via: ExactAudioCopy v0.99pb3
#
DISCID=3b048f05
DTITLE=Victoria George - Lately I EP
DYEAR=2011
DGENRE=Rock
TTITLE0=Forever
TTITLE1=Lately I
TTITLE2=That Makes Two of Us
TTITLE3=Lost My Way
TTITLE4=Someone You Used To Know
EXTD=
EXTT0=
EXTT1=
EXTT2=
EXTT3=
EXTT4=
PLAYORDER=
